<svg width="18" height="11" viewBox="0 0 18 11" fill="none" xmlns="http://www.w3.org/2000/svg">
  <path d="M17.2969 10.2059C17.1924 10.3108 17.0682 10.394 16.9314 10.4508C16.7947 10.5076 16.6481 10.5368 16.5 10.5368C16.3519 10.5368 16.2053 10.5076 16.0686 10.4508C15.9318 10.394 15.8076 10.3108 15.7031 10.2059L9.00094 3.50375L2.29687 10.2059C2.08553 10.4173 1.79888 10.536 1.5 10.536C1.20111 10.536 0.914468 10.4173 0.703123 10.2059C0.491779 9.9946 0.373047 9.70795 0.373047 9.40907C0.373047 9.11018 0.491779 8.82354 0.703123 8.61219L8.20312 1.11219C8.30764 1.00731 8.43183 0.924095 8.56858 0.867314C8.70532 0.810533 8.85193 0.781304 9 0.781304C9.14806 0.781304 9.29467 0.810533 9.43142 0.867314C9.56817 0.924095 9.69236 1.00731 9.79687 1.11219L17.2969 8.61219C17.4018 8.71671 17.485 8.8409 17.5418 8.97765C17.5985 9.11439 17.6278 9.261 17.6278 9.40907C17.6278 9.55713 17.5985 9.70374 17.5418 9.84049C17.485 9.97723 17.4018 10.1014 17.2969 10.2059Z" fill="#15AA7A" transform="scale(1, -1) translate(0, -11)"/>
</svg>
