<svg xmlns="http://www.w3.org/2000/svg" xmlns:xlink="http://www.w3.org/1999/xlink" version="1.1" id="Capa_1" x="0px" y="0px" viewBox="0 0 48 48" style="enable-background:new 0 0 48 48; display: flex; justify-content: center; align-items: center;" xml:space="preserve" width="48" height="48">
    <g transform="translate(7, 7)">
        <path fill="#15AA7A" d="M34.5,16.5h-33C0.64,16.5,0,17.14,0,18s0.64,1.5,1.5,1.5h33c0.86,0,1.5-0.64,1.5-1.5S35.36,16.5,34.5,16.5z"/>
        <path fill="#15AA7A" d="M1.5,8.5h33c0.86,0,1.5-0.64,1.5-1.5s-0.64-1.5-1.5-1.5h-33C0.64,5.5,0,6.14,0,7S0.64,8.5,1.5,8.5z"/>
        <path fill="#15AA7A" d="M34.5,27.5h-33C0.64,27.5,0,28.14,0,29s0.64,1.5,1.5,1.5h33c0.86,0,1.5-0.64,1.5-1.5S35.36,27.5,34.5,27.5z"/>
    </g>
</svg>
